<svg version="1.1" xmlns="http://www.w3.org/2000/svg" viewBox="-3399.2922423800865 -9786.870991426878 17004.58438695788 17004.541579567216"><desc>Created with Snap</desc><defs></defs><g><g transform="matrix(41.2563,0,0,41.2563,-3148.2507,-9535.8505)">
<g id="gSkuoocvwpdz">
	<path d="M398.63879,200.00052l-36.78085-67.04428l-21.39929-73.41541l-73.41592-21.39961L200.50656,1.63915L200,1.36172
		l-67.04344,36.78001L59.54134,59.54083L38.14186,132.9552L1.63864,199.49394l-0.27743,0.50658l36.78072,67.04453l21.39942,73.41412
		l73.41489,21.39935l66.5372,36.50232L200,398.63828l67.04172-36.77924l73.41693-21.39987l21.39865-73.41309l36.50406-66.539
		L398.63879,200.00052z M365.49286,247.05289l-8.71042-29.88306l9.1412-16.66275l0.27744-0.50656l-9.4187-17.16881l8.71066-29.88382
		L379.20798,200L365.49286,247.05289z M380.30396,203.76021l4.81308,16.51221l-17.91296,32.6512l-0.61517-2.11052
		L380.30396,203.76021z M345.23193,316.56244l-15.07812,8.27203l23.57217-42.96695l1.92709-1.05731L345.23193,316.56244z
		 M326.71875,326.71893l-42.96701,23.57205l14.97098-27.28934l18.79968-5.47977l5.47961-18.79922l27.28915-14.97067
		L326.71875,326.71893z M324.83429,330.15393l-8.27231,15.07858l-35.75223,10.42108l1.05783-1.92813L324.83429,330.15393z
		 M200,379.20844l-47.05251-13.71506l29.88313-8.71054l16.66281,9.14133L200,366.2016l16.99451-9.32321l30.00282,8.63116
		L200,379.20844z M250.78233,366.59845l2.12843,0.61215l-32.63995,17.90656l-16.51068-4.81262L250.78233,366.59845z
		 M196.23987,380.30453l-16.51082,4.81262l-32.6515-17.91272l2.10976-0.61496L196.23987,380.30453z M73.28035,326.71893
		l-23.57236-42.96747l27.28947,14.97095l5.5274,18.96286l0.16235,0.55588l18.97235,5.45792l14.58871,26.59244L73.28035,326.71893z
		 M118.13261,353.72623l1.05744,1.92737l-35.75327-10.4216l-8.27197-15.07806L118.13261,353.72623z M44.34647,280.81021
		l1.92705,1.05704l23.57198,42.96747l-15.07735-8.27151L44.34647,280.81021z M20.79113,200l13.71512-47.05161l8.71046,29.8828
		l-9.14138,16.66275l-0.27743,0.50658l9.41875,17.16853l-8.71047,29.88255L20.79113,200z M33.41014,250.8118l-0.61529,2.11053
		l-17.9126-32.65094l4.81289-16.51118L33.41014,250.8118z M19.69515,196.23979l-4.8127-16.51067l17.91266-32.6512l0.6151,2.11028
		L19.69515,196.23979z M54.76814,83.43679l15.07735-8.27152l-23.57191,42.96748l-1.92711,1.05706L54.76814,83.43679z
		 M73.28048,73.28106l42.96799-23.57255l-14.97126,27.28985L82.4776,82.47812l-5.47981,18.79922l-27.28947,14.97119
		L73.28048,73.28106z M75.16482,69.84606l8.27197-15.07806l35.75333-10.4216l-1.05745,1.92762L75.16482,69.84606z
		 M247.05199,34.50637l-29.88293,8.71053l-16.66249-9.14106L200,33.79842l-17.16881,9.41874l-29.88318-8.71053l47.05251-13.71506
		L247.05199,34.50637z M326.71863,73.28106l23.57224,42.96696l-27.28891-14.97094l-5.47955-18.79896l-18.79993-5.48001
		l-14.97083-27.28909L326.71863,73.28106z M281.86737,46.27402l-1.05762-1.92762l35.75223,10.42109l8.27216,15.07832
		L281.86737,46.27402z M355.65308,119.1898l-1.92773-1.05783l-23.57178-42.96671l15.07837,8.27229L355.65308,119.1898z
		 M307.3237,307.32376l13.06888-7.16949l-4.56763,15.67017l-15.67062,4.56781L307.3237,307.32376z M297.29614,321.22531
		l-32.67236,9.5238l39.26505-21.54089L297.29614,321.22531z M309.20792,303.88928l21.54135-39.26608l-9.52362,32.673
		L309.20792,303.88928z M305.77304,305.7735l-50.48621,27.69702l-55.65616,16.22321l-53.29005-15.33029l-52.11431-28.59018
		l-27.69849-50.4884l-16.11463-55.28459l16.11527-55.28561L94.2267,94.2265l50.48685-27.69727l55.28619-16.1156l55.28697,16.1156
		l50.48666,27.69727l27.69757,50.48788l16.1149,55.28613l-16.11469,55.2851L305.77304,305.7735z M199.63536,351.88467
		l14.48891,4.16812L200,363.8013l-14.3116-7.85126L199.63536,351.88467z M183.07909,354.51843l-28.34781-15.55173l41.11916,11.82904
		L183.07909,354.51843z M203.4156,350.78265l43.34534-12.63461l-30.01869,16.46829L203.4156,350.78265z M92.67604,307.32376
		l7.5574,13.7757l-15.85081-4.55988l-4.77622-16.38583L92.67604,307.32376z M78.77334,297.29572l-9.52407-32.67432
		l21.54237,39.26764L78.77334,297.29572z M96.11072,309.20822l41.02835,22.5083l-34.05465-9.79688L96.11072,309.20822z
		 M48.22117,200l-4.17172,14.31178l-7.85126-14.31126l7.85152-14.3118L48.22117,200z M45.4811,183.07961l16.36997-29.83888
		l-12.53392,42.99933L45.4811,183.07961z M49.31721,203.76021l12.53405,43.00035l-16.37029-29.83939L49.31721,203.76021z
		 M92.67611,92.67624l-13.06875,7.1695l4.5677-15.67017l15.67049-4.56783L92.67611,92.67624z M102.70379,78.77468l32.67283-9.5238
		L96.11097,90.79177L102.70379,78.77468z M90.79183,96.11097l-21.54147,39.26585l9.52388-32.67303L90.79183,96.11097z
		 M199.99974,48.22169l-14.31126-4.17172L200,36.1987l14.31134,7.85127L199.99974,48.22169z M216.92059,45.4813l29.84023,16.37068
		l-43.00093-12.53444L216.92059,45.4813z M196.23961,49.31754l-43.00003,12.53418l29.83957-16.37016L196.23961,49.31754z
		 M307.32306,92.67572l-7.16907-13.06798l15.67096,4.56783l4.5675,15.66991L307.32306,92.67572z M321.22559,102.70379
		l9.52411,32.67481l-21.5423-39.26814L321.22559,102.70379z M303.88904,90.79177l-39.26431-21.54038l32.67175,9.52329
		L303.88904,90.79177z M350.68188,203.76071l3.83612,13.16046l-16.3696,29.83861L350.68188,203.76071z M351.77792,200.00052
		l4.1716-14.31154l7.85126,14.31154l-7.85132,14.31126L351.77792,200.00052z M350.68195,196.24031l-12.53366-42.99983
		l16.36978,29.83913L350.68195,196.24031z M335.42703,143.90469l-11.59195-39.76932l28.34024,15.54764l7.72693,14.08444
		l4.49475,15.42023l-9.04614,31.03465L335.42703,143.90469z M295.86496,76.16531l-39.76633-11.59144l-36.32025-19.92537
		l31.03368-9.04602l15.4185,4.49411l14.08688,7.72822L295.86496,76.16531z M149.18794,35.60274l31.03394,9.04601l-36.31905,19.92461
		l-39.76746,11.59169l15.54815-28.34101l14.08433-7.72668L149.18794,35.60274z M76.16473,104.13538l-11.59176,39.76752
		l-19.92486,36.31892l-9.04582-31.03362l4.49501-15.42075l7.72655-14.08393L76.16473,104.13538z M44.64811,219.77818
		l19.92461,36.31865l11.59162,39.76755l-28.34088-15.54791l-7.72585-14.08264l-4.49539-15.42227L44.64811,219.77818z
		 M104.51055,324.51929l41.01929,11.80026l34.69145,19.03195l-31.03387,9.04602l-15.41893-4.49463l-14.08516-7.72693
		L104.51055,324.51929z M219.61263,355.4422l36.48494-20.01581l39.767-11.59143l-15.54788,28.34048l-14.08612,7.72797
		l-15.45279,4.50412L219.61263,355.4422z M323.83514,295.86462l11.59149-39.76727l19.92435-36.31815l9.04584,31.03363
		l-4.49493,15.42099l-7.72617,14.08316L323.83514,295.86462z M366.58908,149.18768l0.61511-2.11052l17.91266,32.65092
		l-4.8129,16.5117L366.58908,149.18768z M365.77274,144.46803l-0.27963,0.95944l-0.91373-3.13469L365.77274,144.46803z
		 M355.6098,121.56722l0.8764,0.48062l0.69449,2.38281L355.6098,121.56722z M344.39874,80.57926l-16.12967-8.84898
		l-8.84879-16.12947l19.34091,5.63748L344.39874,80.57926z M277.95215,43.51334l0.48096,0.87673l-2.86459-1.57159
		L277.95215,43.51334z M254.57227,34.50637l0.9588-0.27948l2.17392,1.19243L254.57227,34.50637z M252.92188,32.7953
		l-2.10962,0.61497l-68.47394-19.95903L200,3.762L252.92188,32.7953z M179.72905,14.88283l16.51138,4.81264l-53.94701,15.72462
		L179.72905,14.88283z M121.56773,44.38956l0.48069-0.87621l2.3823-0.69435L121.56773,44.38956z M61.2388,61.23829l19.33969-5.63722
		l-8.8486,16.12947l-16.12863,8.84821L61.2388,61.23829z M43.51334,122.0481l0.87577-0.48037l-1.56986,2.86138L43.51334,122.0481z
		 M34.50618,145.42799l-0.27961-0.95944l1.1934-2.17526L34.50618,145.42799z M13.45098,182.3385L18.59911,200l-5.14832,17.66202
		l-9.6893-17.6615L13.45098,182.3385z M34.22631,255.53171l0.27981-0.95996l0.91423,3.13623L34.22631,255.53171z
		 M44.38905,278.43225l-0.8757-0.48035l-0.69403-2.38101L44.38905,278.43225z M55.60126,319.42126l16.12863,8.84821l8.8486,16.12946
		l-19.33969-5.63721L55.60126,319.42126z M122.04836,356.48691l-0.48068-0.87622l2.86273,1.57031L122.04836,356.48691z
		 M145.42715,365.49362l-0.95886,0.27948l-2.1741-1.19293L145.42715,365.49362z M182.33832,386.54877L200,381.40063
		l17.66156,5.14813L200,396.23801L182.33832,386.54877z M255.52882,365.77438l-0.96606-0.27792l3.14223-0.91577L255.52882,365.77438
		z M278.43253,355.60992l-0.48108,0.87698l-2.38385,0.69485L278.43253,355.60992z M338.7612,338.76172l-19.34091,5.63748
		l8.84906-16.12973l16.12939-8.84872L338.7612,338.76172z M356.48621,277.95215l-0.8757,0.48038l1.56961-2.86111
		L356.48621,277.95215z M365.49286,254.57329l0.27972,0.95944l-1.19357,2.17577L365.49286,254.57329z M386.54849,217.66304
		L381.39999,200l5.14832-17.66252l9.69022,17.66304L386.54849,217.66304z" fill="#eecaaf" style=""></path>
</g>


<desc>Created with Snap</desc><defs></defs></g><g><g transform="matrix(0.5,0,0,-0.5,0,0)"><path d="M492 339Q601 200 814 200Q1027 200 1135 338Q1244 477 1244 730Q1244 986 1135 1127Q1027 1268 815 1268Q602 1268 492 1126Q383 985 383 730Q383 478 492 339ZM813 -21Q482 -21 290 179Q99 380 99 733Q99 1088 291 1287Q483 1486 814 1486Q1145 1486 1336 1286Q1527 1087 1527 732Q1527 381 1335 180Q1143 -21 813 -21ZM2021 0L1759 0L1759 1099L1970 1099L1999 960Q2167 1126 2372 1126Q2564 1126 2659 1015Q2755 905 2755 695L2755 0L2492 0L2492 663Q2491 796 2449 862Q2407 928 2298 928Q2213 928 2142 884Q2072 841 2040 775Q2021 697 2021 535L2021 0ZM3398 -15Q3285 -15 3210 11Q3136 38 3093 96Q3050 154 3033 234Q3016 314 3016 433L3016 1504L3278 1521L3278 438Q3278 290 3313 237Q3348 185 3449 185Q3499 185 3576 196L3583 9Q3582 9 3558 4Q3535 -1 3513 -5Q3492 -8 3459 -12Q3426 -15 3398 -15ZM3981 0L3719 0L3719 1099L3981 1099L3981 0ZM3982 1259L3719 1259L3719 1483L3982 1483L3982 1259ZM4516 0L4254 0L4254 1099L4465 1099L4494 960Q4662 1126 4867 1126Q5059 1126 5154 1015Q5250 905 5250 695L5250 0L4987 0L4987 663Q4986 796 4944 862Q4902 928 4793 928Q4708 928 4637 884Q4567 841 4535 775Q4516 697 4516 535L4516 0ZM6016 -21Q5751 -21 5603 131Q5456 284 5456 553Q5456 815 5595 970Q5734 1125 5974 1126Q6201 1126 6326 984Q6452 842 6452 607Q6452 590 6451 552Q6451 514 6451 496L5720 496Q5724 342 5804 257Q5885 173 6026 173Q6206 173 6372 267L6409 81Q6244 -21 6016 -21ZM5725 661L6205 661Q6205 795 6144 867Q6083 939 5975 939Q5874 939 5804 869Q5735 799 5725 661ZM7870 -21Q7549 -21 7361 181Q7173 383 7173 739Q7173 1077 7369 1281Q7566 1486 7884 1486Q8141 1486 8319 1367L8234 1162Q8063 1267 7890 1267Q7688 1267 7570 1121Q7453 976 7453 731Q7453 477 7566 338Q7680 199 7890 199Q8074 199 8255 291L8291 79Q8123 -21 7870 -21ZM8892 -15Q8779 -15 8704 11Q8630 38 8587 96Q8544 154 8527 234Q8510 314 8510 433L8510 1504L8772 1521L8772 438Q8772 290 8807 237Q8842 185 8943 185Q8993 185 9070 196L9077 9Q9076 9 9052 4Q9029 -1 9007 -5Q8986 -8 8953 -12Q8920 -15 8892 -15ZM9497 -21Q9344 -21 9249 63Q9155 148 9155 307Q9155 478 9267 560Q9379 643 9605 665Q9636 669 9672 673Q9708 677 9753 681Q9798 685 9824 688L9824 746Q9824 846 9778 891Q9732 937 9638 937Q9504 937 9307 862Q9306 865 9274 953Q9242 1041 9241 1043Q9435 1126 9661 1126Q9883 1126 9984 1029Q10085 933 10085 717L10085 0L9891 0Q9890 4 9869 67Q9848 130 9848 134Q9766 54 9687 16Q9609 -21 9497 -21ZM9568 165Q9659 165 9726 208Q9794 252 9823 314L9823 526Q9820 526 9770 522Q9721 518 9717 518Q9558 504 9484 458Q9410 412 9410 310Q9410 240 9451 202Q9492 165 9568 165ZM10700 -20Q10457 -20 10311 63L10338 260Q10404 224 10506 195Q10608 167 10692 167Q10779 167 10827 199Q10876 232 10877 295Q10877 352 10831 385Q10786 418 10658 467Q10614 483 10601 488Q10449 547 10382 619Q10315 692 10315 816Q10315 966 10423 1046Q10532 1126 10726 1126Q10936 1126 11095 1047L11030 866Q10873 939 10731 939Q10652 939 10607 912Q10563 886 10563 832Q10563 781 10606 752Q10649 724 10774 678Q10778 677 10800 669Q10822 661 10834 656Q10985 601 11056 524Q11127 448 11127 325Q11126 160 11015 70Q10904 -20 10700 -20ZM11685 -20Q11442 -20 11296 63L11323 260Q11389 224 11491 195Q11593 167 11677 167Q11764 167 11812 199Q11861 232 11862 295Q11862 352 11816 385Q11771 418 11643 467Q11599 483 11586 488Q11434 547 11367 619Q11300 692 11300 816Q11300 966 11408 1046Q11517 1126 11711 1126Q11921 1126 12080 1047L12015 866Q11858 939 11716 939Q11637 939 11592 912Q11548 886 11548 832Q11548 781 11591 752Q11634 724 11759 678Q11763 677 11785 669Q11807 661 11819 656Q11970 601 12041 524Q12112 448 12112 325Q12111 160 12000 70Q11889 -20 11685 -20ZM12827 -21Q12562 -21 12414 131Q12267 284 12267 553Q12267 815 12406 970Q12545 1125 12785 1126Q13012 1126 13137 984Q13263 842 13263 607Q13263 590 13262 552Q13262 514 13262 496L12531 496Q12535 342 12615 257Q12696 173 12837 173Q13017 173 13183 267L13220 81Q13055 -21 12827 -21ZM12536 661L13016 661Q13016 795 12955 867Q12894 939 12786 939Q12685 939 12615 869Q12546 799 12536 661ZM13827 -20Q13584 -20 13438 63L13465 260Q13531 224 13633 195Q13735 167 13819 167Q13906 167 13954 199Q14003 232 14004 295Q14004 352 13958 385Q13913 418 13785 467Q13741 483 13728 488Q13576 547 13509 619Q13442 692 13442 816Q13442 966 13550 1046Q13659 1126 13853 1126Q14063 1126 14222 1047L14157 866Q14000 939 13858 939Q13779 939 13734 912Q13690 886 13690 832Q13690 781 13733 752Q13776 724 13901 678Q13905 677 13927 669Q13949 661 13961 656Q14112 601 14183 524Q14254 448 14254 325Q14253 160 14142 70Q14031 -20 13827 -20ZM15438 -20Q15173 -20 14963 102L15029 317Q15123 265 15233 233Q15344 201 15449 201Q15578 201 15644 256Q15710 312 15710 416Q15710 554 15526 607Q15513 611 15453 628Q15393 646 15340 662Q15288 679 15265 688Q14970 792 14970 1076Q14970 1275 15111 1383Q15253 1491 15487 1491Q15752 1491 15944 1382L15862 1184Q15666 1272 15498 1272Q15377 1272 15315 1229Q15254 1187 15250 1088Q15250 966 15371 929Q15395 920 15489 890Q15583 860 15611 851Q15812 785 15898 687Q15985 589 15985 414Q15985 205 15837 92Q15689 -20 15438 -20ZM16984 86Q16853 -21 16639 -21Q16425 -21 16294 86Q16164 193 16164 400L16164 1099L16427 1099L16427 410Q16427 287 16478 232Q16530 177 16642 177Q16752 177 16802 231Q16853 286 16853 410L16853 1099L17115 1099L17115 400Q17115 194 16984 86ZM17835 -21Q17583 -21 17442 129Q17302 279 17302 558Q17302 828 17449 977Q17597 1126 17838 1126Q18031 1126 18164 1043L18102 856Q17966 927 17849 927Q17716 927 17639 832Q17563 737 17563 555Q17563 371 17638 275Q17714 179 17852 179Q17996 179 18129 264L18154 65Q18085 19 18011 -1Q17937 -21 17835 -21ZM18624 0L18362 0L18362 1504L18624 1521L18624 846L18618 624Q18619 625 18638 644Q18658 663 18660 665Q18715 730 18779 799Q18844 868 18942 968Q19041 1068 19071 1099L19383 1099L18931 631L19412 0L19095 0L18733 499L18624 413L18624 0ZM19886 -20Q19643 -20 19497 63L19524 260Q19590 224 19692 195Q19794 167 19878 167Q19965 167 20013 199Q20062 232 20063 295Q20063 352 20017 385Q19972 418 19844 467Q19800 483 19787 488Q19635 547 19568 619Q19501 692 19501 816Q19501 966 19609 1046Q19718 1126 19912 1126Q20122 1126 20281 1047L20216 866Q20059 939 19917 939Q19838 939 19793 912Q19749 886 19749 832Q19749 781 19792 752Q19835 724 19960 678Q19964 677 19986 669Q20008 661 20020 656Q20171 601 20242 524Q20313 448 20313 325Q20312 160 20201 70Q20090 -20 19886 -20Z" fill="#1d8ac0" style=""></path></g></g><g transform="matrix(2,0,0,2,3032,-1088.7)"><g transform="matrix(0.5,0,0,-0.5,0,0)"><path d="M492 339Q601 200 814 200Q1027 200 1135 338Q1244 477 1244 730Q1244 986 1135 1127Q1027 1268 815 1268Q602 1268 492 1126Q383 985 383 730Q383 478 492 339ZM813 -21Q482 -21 290 179Q99 380 99 733Q99 1088 291 1287Q483 1486 814 1486Q1145 1486 1336 1286Q1527 1087 1527 732Q1527 381 1335 180Q1143 -21 813 -21ZM2423 -21Q2102 -21 1914 181Q1726 383 1726 739Q1726 1077 1922 1281Q2119 1486 2437 1486Q2694 1486 2872 1367L2787 1162Q2616 1267 2443 1267Q2241 1267 2123 1121Q2006 976 2006 731Q2006 477 2119 338Q2233 199 2443 199Q2627 199 2808 291L2844 79Q2676 -21 2423 -21ZM3496 -20Q3231 -20 3021 102L3087 317Q3181 265 3291 233Q3402 201 3507 201Q3636 201 3702 256Q3768 312 3768 416Q3768 554 3584 607Q3571 611 3511 628Q3451 646 3398 662Q3346 679 3323 688Q3028 792 3028 1076Q3028 1275 3169 1383Q3311 1491 3545 1491Q3810 1491 4002 1382L3920 1184Q3724 1272 3556 1272Q3435 1272 3373 1229Q3312 1187 3308 1088Q3308 966 3429 929Q3453 920 3547 890Q3641 860 3669 851Q3870 785 3956 687Q4043 589 4043 414Q4043 205 3895 92Q3747 -20 3496 -20Z" fill="#1d8ac0" style=""></path></g></g></g></svg>